HIERARCHY
ROOT Hips
{
	OFFSET 0.000000 0.000000 0.000000
	CHANNELS 6 Xposition Yposition Zposition Zrotation Yrotation Xrotation
	JOINT Spine
	{
		OFFSET 0.000000 -0.744707 -0.000000
		CHANNELS 6 Xposition Yposition Zposition Zrotation Yrotation Xrotation
		JOINT Spine1
		{
			OFFSET 0.000000 -2.032240 -0.000000
			CHANNELS 6 Xposition Yposition Zposition Zrotation Yrotation Xrotation
			JOINT Neck
			{
				OFFSET 0.000000 -2.213880 -0.000000
				CHANNELS 6 Xposition Yposition Zposition Zrotation Yrotation Xrotation
				JOINT Head
				{
					OFFSET 0.000000 -1.407680 -0.181636
					CHANNELS 6 Xposition Yposition Zposition Zrotation Yrotation Xrotation
					End Site
					{
						OFFSET 0.000000 -1.816356 -0.000000
					}
				}
			}
			JOINT LeftShoulder
			{
				OFFSET 0.365767 -1.787590 0.048012
				CHANNELS 6 Xposition Yposition Zposition Zrotation Yrotation Xrotation
				JOINT LeftArm
				{
					OFFSET 1.305160 0.000000 0.000000
					CHANNELS 6 Xposition Yposition Zposition Zrotation Yrotation Xrotation
					JOINT LeftForeArm
					{
						OFFSET 2.559210 0.000000 0.000000
						CHANNELS 6 Xposition Yposition Zposition Zrotation Yrotation Xrotation
						JOINT LeftHand
						{
							OFFSET 2.378450 0.000000 0.000000
							CHANNELS 6 Xposition Yposition Zposition Zrotation Yrotation Xrotation
							End Site
							{
								OFFSET 1.362267 0.000000 0.000000
							}
						}
					}
				}
			}
			JOINT RightShoulder
			{
				OFFSET -0.360721 -1.787590 0.048012
				CHANNELS 6 Xposition Yposition Zposition Zrotation Yrotation Xrotation
				JOINT RightArm
				{
					OFFSET -1.305160 0.000000 0.000000
					CHANNELS 6 Xposition Yposition Zposition Zrotation Yrotation Xrotation
					JOINT RightForeArm
					{
						OFFSET -2.559210 0.000000 0.000000
						CHANNELS 6 Xposition Yposition Zposition Zrotation Yrotation Xrotation
						JOINT RightHand
						{
							OFFSET -2.378450 0.000000 0.000000
							CHANNELS 6 Xposition Yposition Zposition Zrotation Yrotation Xrotation
							End Site
							{
								OFFSET -1.362267 0.000000 0.000000
							}
						}
					}
				}
			}
		}
	}
	JOINT LeftUpLeg
	{
		OFFSET 0.908180 0.000000 0.000000
		CHANNELS 6 Xposition Yposition Zposition Zrotation Yrotation Xrotation
		JOINT LeftLeg
		{
			OFFSET 0.000000 3.819490 0.000002
			CHANNELS 6 Xposition Yposition Zposition Zrotation Yrotation Xrotation
			JOINT LeftFoot
			{
				OFFSET 0.000000 4.004300 0.000002
				CHANNELS 6 Xposition Yposition Zposition Zrotation Yrotation Xrotation
				JOINT LeftToeBase
				{
					OFFSET 0.000000 0.590317 -1.362270
					CHANNELS 6 Xposition Yposition Zposition Zrotation Yrotation Xrotation
					End Site
					{
						OFFSET 0.000000 0.000000 -0.363271
					}
				}
			}
		}
	}
	JOINT RightUpLeg
	{
		OFFSET -0.908180 0.000000 0.000000
		CHANNELS 6 Xposition Yposition Zposition Zrotation Yrotation Xrotation
		JOINT RightLeg
		{
			OFFSET 0.000000 3.819490 0.000002
			CHANNELS 6 Xposition Yposition Zposition Zrotation Yrotation Xrotation
			JOINT RightFoot
			{
				OFFSET 0.000000 4.004300 0.000002
				CHANNELS 6 Xposition Yposition Zposition Zrotation Yrotation Xrotation
				JOINT RightToeBase
				{
					OFFSET 0.000000 0.590317 -1.362270
					CHANNELS 6 Xposition Yposition Zposition Zrotation Yrotation Xrotation
					End Site
					{
						OFFSET 0.000000 0.000000 -0.363271
					}
				}
			}
		}
	}
}
MOTION
Frames: 4
Frame Time: 0.016667
-1.172897 -7.610187 -1.838406 -1.288274 0.395873 9.127488 -0.000000 -0.744707 0.000000 3.665207 3.403731 -17.651970 0.000000 -2.032241 -0.000002 -12.156553 1.576736 5.847945 -0.000000 -2.213882 -0.000001 -1.482664 -3.121219 12.521031 -0.000000 -1.407679 -0.181636 7.410046 -4.537662 1.176121 0.365767 -1.787590 0.048012 -20.948141 -2.779227 -8.128964 1.305162 -0.000003 -0.000000 1.623302 12.738888 -9.556341 2.559211 0.000000 0.000000 2.217018 -0.438796 -5.884775 2.378450 0.000000 -0.000001 6.243131 -19.331350 -6.940241 -0.360721 -1.787590 0.048012 16.921024 5.478456 1.094722 -1.305160 -0.000002 0.000000 -16.867437 -20.779500 40.689325 -2.559210 0.000001 -0.000001 93.107903 -59.010526 -62.953847 -2.378451 -0.000000 0.000000 48.195792 11.482118 3.922392 0.908180 0.000000 0.000000 -13.002015 -15.189366 -18.407104 0.000000 3.819491 0.000002 0.369227 -4.162644 22.699200 -0.000000 4.004301 0.000002 9.223299 -17.957325 -2.012996 -0.000000 0.590317 -1.362270 -0.000002 0.000003 0.000003 -0.908180 0.000000 0.000000 20.742882 5.085465 -22.326597 0.000001 3.819490 0.000002 -18.888705 -11.557086 31.042448 -0.000000 4.004300 0.000002 -21.485759 45.704231 -22.891529 -0.000000 0.590316 -1.362270 0.000004 0.000006 0.000004 
-1.173770 -7.610147 -1.838429 -1.279595 0.402952 9.126818 -0.000000 -0.744705 0.000000 3.659698 3.397790 -17.659871 0.000000 -2.032238 -0.000001 -12.159740 1.575747 5.852896 -0.000000 -2.213880 -0.000000 -1.510021 -3.170017 12.538544 0.000000 -1.407683 -0.181637 7.420513 -4.590774 1.119165 0.365767 -1.787588 0.048011 -20.938218 -2.773168 -8.136522 1.305162 0.000000 -0.000000 1.618622 12.732863 -9.563705 2.559211 -0.000000 0.000001 2.231395 -0.443653 -5.889453 2.378451 0.000001 -0.000000 6.193107 -19.344926 -6.936969 -0.360721 -1.787588 0.048011 16.925870 5.470957 1.092844 -1.305161 0.000002 -0.000000 -16.860018 -20.753938 40.749588 -2.559211 0.000000 -0.000002 93.141364 -58.938242 -62.955520 -2.378449 0.000001 -0.000000 48.191472 11.464132 3.867357 0.908180 0.000001 0.000000 -13.021216 -15.169271 -18.396331 0.000000 3.819489 0.000002 0.363507 -4.184728 22.690781 0.000000 4.004301 0.000000 9.271000 -17.964678 -2.017427 -0.000000 0.590317 -1.362270 -0.000000 0.000001 -0.000002 -0.908180 0.000001 0.000000 20.724474 5.087840 -22.326065 0.000001 3.819491 0.000002 -18.874917 -11.546871 31.034348 -0.000000 4.004300 0.000001 -21.462450 45.684615 -22.876127 -0.000000 0.590316 -1.362270 -0.000001 0.000003 0.000004 
-1.174628 -7.609983 -1.838607 -1.279429 0.402779 9.119696 0.000000 -0.744707 0.000000 3.661673 3.397977 -17.655436 -0.000000 -2.032241 -0.000000 -12.162797 1.575563 5.849424 -0.000000 -2.213879 -0.000000 -1.531408 -3.227796 12.536688 0.000000 -1.407683 -0.181637 7.406452 -4.650200 1.093335 0.365767 -1.787590 0.048012 -20.923666 -2.769943 -8.144235 1.305162 -0.000003 -0.000000 1.613039 12.727662 -9.536293 2.559211 -0.000003 0.000001 2.238018 -0.443390 -5.897061 2.378449 0.000001 0.000000 6.193105 -19.349736 -6.944828 -0.360722 -1.787589 0.048012 16.931204 5.476758 1.106327 -1.305161 -0.000002 -0.000000 -16.843576 -20.756827 40.744851 -2.559209 0.000001 -0.000001 93.166260 -58.927157 -62.983777 -2.378449 0.000000 -0.000000 48.200566 11.504578 3.869019 0.908180 0.000000 0.000000 -13.031990 -15.147092 -18.384397 0.000000 3.819490 0.000002 0.368487 -4.170041 22.682616 0.000000 4.004299 0.000001 9.233354 -17.995616 -2.011789 0.000000 0.590317 -1.362270 -0.000000 0.000005 -0.000001 -0.908180 0.000000 0.000000 20.712523 5.107473 -22.320314 0.000000 3.819490 0.000002 -18.889199 -11.583800 31.049435 -0.000000 4.004299 0.000001 -21.430960 45.697097 -22.874811 -0.000000 0.590317 -1.362270 -0.000001 0.000005 0.000002 
-1.175332 -7.609899 -1.838417 -1.268862 0.412013 9.119196 0.000000 -0.744708 -0.000000 3.650038 3.389767 -17.660142 0.000000 -2.032239 -0.000000 -12.162143 1.573939 5.854195 -0.000000 -2.213878 0.000000 -1.550084 -3.277904 12.538459 -0.000000 -1.407678 -0.181636 7.398377 -4.701533 1.059878 0.365767 -1.787590 0.048012 -20.926385 -2.777640 -8.149382 1.305159 0.000002 0.000000 1.632478 12.729996 -9.506797 2.559212 -0.000001 0.000000 2.232529 -0.439103 -5.906627 2.378449 0.000001 -0.000000 6.200889 -19.360371 -6.956416 -0.360721 -1.787588 0.048012 16.945646 5.472368 1.100988 -1.305160 0.000001 -0.000001 -16.844158 -20.744980 40.725980 -2.559209 -0.000001 0.000000 93.184537 -58.946056 -63.009526 -2.378449 0.000002 -0.000001 48.207164 11.517379 3.885286 0.908180 -0.000000 0.000000 -13.053272 -15.110335 -18.373627 -0.000000 3.819490 0.000001 0.354652 -4.208676 22.670255 -0.000000 4.004301 0.000001 9.239021 -18.000212 -2.013464 0.000000 0.590317 -1.362270 -0.000002 -0.000003 0.000001 -0.908180 -0.000001 -0.000000 20.696744 5.104159 -22.336773 0.000001 3.819491 0.000001 -18.909602 -11.602548 31.073765 -0.000000 4.004300 0.000001 -21.454497 45.714835 -22.894417 0.000001 0.590317 -1.362269 -0.000000 0.000004 -0.000000 
